<svg width="257" height="163" viewBox="0 0 257 163" fill="none" xmlns="http://www.w3.org/2000/svg">
<rect width="257" height="163" fill="#FBFBFB"/>
<path d="M49.696 76.376L39.896 99.42H34.744L38.328 91.468L31.972 76.376H37.32L40.932 86.148L44.516 76.376H49.696ZM58.4554 87.52L61.8434 76.376H66.9394L61.3954 92H55.4874L49.9434 76.376H55.0674L58.4554 87.52ZM75.3108 92.224C73.9481 92.224 72.7348 91.9907 71.6708 91.524C70.6068 91.0573 69.7668 90.4227 69.1508 89.62C68.5348 88.7987 68.1894 87.884 68.1148 86.876H72.8468C72.9028 87.4173 73.1548 87.856 73.6028 88.192C74.0508 88.528 74.6014 88.696 75.2548 88.696C75.8521 88.696 76.3094 88.584 76.6268 88.36C76.9628 88.1173 77.1308 87.8093 77.1308 87.436C77.1308 86.988 76.8974 86.6613 76.4308 86.456C75.9641 86.232 75.2081 85.9893 74.1628 85.728C73.0428 85.4667 72.1094 85.196 71.3628 84.916C70.6161 84.6173 69.9721 84.16 69.4308 83.544C68.8894 82.9093 68.6188 82.06 68.6188 80.996C68.6188 80.1 68.8614 79.288 69.3468 78.56C69.8508 77.8133 70.5788 77.2253 71.5308 76.796C72.5014 76.3667 73.6494 76.152 74.9748 76.152C76.9348 76.152 78.4748 76.6373 79.5948 77.608C80.7334 78.5787 81.3868 79.8667 81.5548 81.472H77.1308C77.0561 80.9307 76.8134 80.5013 76.4028 80.184C76.0108 79.8667 75.4881 79.708 74.8348 79.708C74.2748 79.708 73.8454 79.82 73.5468 80.044C73.2481 80.2493 73.0988 80.5387 73.0988 80.912C73.0988 81.36 73.3321 81.696 73.7988 81.92C74.2841 82.144 75.0308 82.368 76.0388 82.592C77.1961 82.8907 78.1388 83.1893 78.8668 83.488C79.5948 83.768 80.2294 84.2347 80.7708 84.888C81.3308 85.5227 81.6201 86.3813 81.6388 87.464C81.6388 88.3787 81.3774 89.2 80.8548 89.928C80.3508 90.6373 79.6134 91.1973 78.6428 91.608C77.6908 92.0187 76.5801 92.224 75.3108 92.224ZM91.68 92.224C90.1494 92.224 88.768 91.8973 87.536 91.244C86.3227 90.5907 85.3614 89.6573 84.652 88.444C83.9614 87.2307 83.616 85.812 83.616 84.188C83.616 82.5827 83.9707 81.1733 84.68 79.96C85.3894 78.728 86.36 77.7853 87.592 77.132C88.824 76.4787 90.2054 76.152 91.736 76.152C93.2667 76.152 94.648 76.4787 95.88 77.132C97.112 77.7853 98.0827 78.728 98.792 79.96C99.5014 81.1733 99.856 82.5827 99.856 84.188C99.856 85.7933 99.492 87.212 98.764 88.444C98.0547 89.6573 97.0747 90.5907 95.824 91.244C94.592 91.8973 93.2107 92.224 91.68 92.224ZM91.68 88.08C92.5947 88.08 93.3694 87.744 94.004 87.072C94.6574 86.4 94.984 85.4387 94.984 84.188C94.984 82.9373 94.6667 81.976 94.032 81.304C93.416 80.632 92.6507 80.296 91.736 80.296C90.8027 80.296 90.028 80.632 89.412 81.304C88.796 81.9573 88.488 82.9187 88.488 84.188C88.488 85.4387 88.7867 86.4 89.384 87.072C90 87.744 90.7654 88.08 91.68 88.08ZM111.916 76.208C113.745 76.208 115.201 76.8053 116.284 78C117.385 79.176 117.936 80.8 117.936 82.872V92H113.176V83.516C113.176 82.4707 112.905 81.6587 112.364 81.08C111.823 80.5013 111.095 80.212 110.18 80.212C109.265 80.212 108.537 80.5013 107.996 81.08C107.455 81.6587 107.184 82.4707 107.184 83.516V92H102.396V76.376H107.184V78.448C107.669 77.7573 108.323 77.216 109.144 76.824C109.965 76.4133 110.889 76.208 111.916 76.208ZM141.199 76.208C143.141 76.208 144.681 76.796 145.819 77.972C146.977 79.148 147.555 80.7813 147.555 82.872V92H142.795V83.516C142.795 82.508 142.525 81.7333 141.983 81.192C141.461 80.632 140.733 80.352 139.799 80.352C138.866 80.352 138.129 80.632 137.587 81.192C137.065 81.7333 136.803 82.508 136.803 83.516V92H132.043V83.516C132.043 82.508 131.773 81.7333 131.231 81.192C130.709 80.632 129.981 80.352 129.047 80.352C128.114 80.352 127.377 80.632 126.835 81.192C126.313 81.7333 126.051 82.508 126.051 83.516V92H121.263V76.376H126.051V78.336C126.537 77.6827 127.171 77.1693 127.955 76.796C128.739 76.404 129.626 76.208 130.615 76.208C131.791 76.208 132.837 76.46 133.751 76.964C134.685 77.468 135.413 78.1867 135.935 79.12C136.477 78.2613 137.214 77.5613 138.147 77.02C139.081 76.4787 140.098 76.208 141.199 76.208ZM158.016 92.224C156.485 92.224 155.104 91.8973 153.872 91.244C152.659 90.5907 151.697 89.6573 150.988 88.444C150.297 87.2307 149.952 85.812 149.952 84.188C149.952 82.5827 150.307 81.1733 151.016 79.96C151.725 78.728 152.696 77.7853 153.928 77.132C155.16 76.4787 156.541 76.152 158.072 76.152C159.603 76.152 160.984 76.4787 162.216 77.132C163.448 77.7853 164.419 78.728 165.128 79.96C165.837 81.1733 166.192 82.5827 166.192 84.188C166.192 85.7933 165.828 87.212 165.1 88.444C164.391 89.6573 163.411 90.5907 162.16 91.244C160.928 91.8973 159.547 92.224 158.016 92.224ZM158.016 88.08C158.931 88.08 159.705 87.744 160.34 87.072C160.993 86.4 161.32 85.4387 161.32 84.188C161.32 82.9373 161.003 81.976 160.368 81.304C159.752 80.632 158.987 80.296 158.072 80.296C157.139 80.296 156.364 80.632 155.748 81.304C155.132 81.9573 154.824 82.9187 154.824 84.188C154.824 85.4387 155.123 86.4 155.72 87.072C156.336 87.744 157.101 88.08 158.016 88.08ZM184.16 76.376V92H179.372V89.872C178.887 90.5627 178.224 91.1227 177.384 91.552C176.563 91.9627 175.648 92.168 174.64 92.168C173.445 92.168 172.391 91.9067 171.476 91.384C170.561 90.8427 169.852 90.068 169.348 89.06C168.844 88.052 168.592 86.8667 168.592 85.504V76.376H173.352V84.86C173.352 85.9053 173.623 86.7173 174.164 87.296C174.705 87.8747 175.433 88.164 176.348 88.164C177.281 88.164 178.019 87.8747 178.56 87.296C179.101 86.7173 179.372 85.9053 179.372 84.86V76.376H184.16ZM192.387 78.98C192.947 78.1213 193.647 77.4493 194.487 76.964C195.327 76.46 196.261 76.208 197.287 76.208V81.276H195.971C194.777 81.276 193.881 81.5373 193.283 82.06C192.686 82.564 192.387 83.46 192.387 84.748V92H187.599V76.376H192.387V78.98ZM198.624 84.16C198.624 82.5547 198.923 81.1453 199.52 79.932C200.136 78.7187 200.967 77.7853 202.012 77.132C203.057 76.4787 204.224 76.152 205.512 76.152C206.613 76.152 207.575 76.376 208.396 76.824C209.236 77.272 209.88 77.86 210.328 78.588V76.376H215.116V92H210.328V89.788C209.861 90.516 209.208 91.104 208.368 91.552C207.547 92 206.585 92.224 205.484 92.224C204.215 92.224 203.057 91.8973 202.012 91.244C200.967 90.572 200.136 89.6293 199.52 88.416C198.923 87.184 198.624 85.7653 198.624 84.16ZM210.328 84.188C210.328 82.9933 209.992 82.0507 209.32 81.36C208.667 80.6693 207.864 80.324 206.912 80.324C205.96 80.324 205.148 80.6693 204.476 81.36C203.823 82.032 203.496 82.9653 203.496 84.16C203.496 85.3547 203.823 86.3067 204.476 87.016C205.148 87.7067 205.96 88.052 206.912 88.052C207.864 88.052 208.667 87.7067 209.32 87.016C209.992 86.3253 210.328 85.3827 210.328 84.188ZM220.82 92.224C219.98 92.224 219.289 91.9813 218.748 91.496C218.225 90.992 217.964 90.376 217.964 89.648C217.964 88.9013 218.225 88.276 218.748 87.772C219.289 87.268 219.98 87.016 220.82 87.016C221.641 87.016 222.313 87.268 222.836 87.772C223.377 88.276 223.648 88.9013 223.648 89.648C223.648 90.376 223.377 90.992 222.836 91.496C222.313 91.9813 221.641 92.224 220.82 92.224Z" fill="black"/>
</svg>
