<svg width="257" height="163" viewBox="0 0 257 163" fill="none" xmlns="http://www.w3.org/2000/svg">
<rect width="257" height="163" fill="#FAF1FF"/>
<path d="M68.44 85.04C68.4187 85.552 68.216 85.968 67.832 86.288C67.448 86.608 67 86.768 66.488 86.768H55.928C56.184 88.0267 56.7707 89.0187 57.688 89.744C58.6053 90.448 59.64 90.8 60.792 90.8C61.6667 90.8 62.3493 90.7253 62.84 90.576C63.3307 90.4053 63.7147 90.2347 63.992 90.064C64.2907 89.872 64.4933 89.744 64.6 89.68C64.984 89.488 65.3467 89.392 65.688 89.392C66.136 89.392 66.52 89.552 66.84 89.872C67.16 90.192 67.32 90.5653 67.32 90.992C67.32 91.568 67.0213 92.0907 66.424 92.56C65.8267 93.0507 65.0267 93.4667 64.024 93.808C63.0213 94.1493 62.008 94.32 60.984 94.32C59.192 94.32 57.624 93.9467 56.28 93.2C54.9573 92.4533 53.9333 91.4293 53.208 90.128C52.4827 88.8053 52.12 87.3227 52.12 85.68C52.12 83.8453 52.504 82.2347 53.272 80.848C54.04 79.4613 55.0533 78.4053 56.312 77.68C57.5707 76.9333 58.9147 76.56 60.344 76.56C61.752 76.56 63.0747 76.944 64.312 77.712C65.5707 78.48 66.5733 79.5147 67.32 80.816C68.0667 82.1173 68.44 83.5253 68.44 85.04ZM60.344 80.08C57.8693 80.08 56.408 81.2427 55.96 83.568H64.344V83.344C64.2587 82.448 63.8213 81.68 63.032 81.04C62.2427 80.4 61.3467 80.08 60.344 80.08ZM85.6235 76.56C86.1782 76.56 86.6368 76.7413 86.9995 77.104C87.3622 77.4667 87.5435 77.936 87.5435 78.512V92.048C87.5435 92.6027 87.3622 93.072 86.9995 93.456C86.6368 93.8187 86.1782 94 85.6235 94C85.0688 94 84.6102 93.8187 84.2475 93.456C83.9062 93.0933 83.7248 92.6347 83.7035 92.08C83.1702 92.6987 82.4448 93.232 81.5275 93.68C80.6315 94.1067 79.6822 94.32 78.6795 94.32C77.2075 94.32 75.8742 93.9467 74.6795 93.2C73.4848 92.432 72.5355 91.376 71.8315 90.032C71.1488 88.688 70.8075 87.1627 70.8075 85.456C70.8075 83.7493 71.1488 82.224 71.8315 80.88C72.5142 79.5147 73.4422 78.4587 74.6155 77.712C75.8102 76.944 77.1222 76.56 78.5515 76.56C79.5755 76.56 80.5355 76.752 81.4315 77.136C82.3275 77.4987 83.0848 77.968 83.7035 78.544V78.512C83.7035 77.9573 83.8848 77.4987 84.2475 77.136C84.6102 76.752 85.0688 76.56 85.6235 76.56ZM79.1595 90.8C80.5462 90.8 81.6768 90.2987 82.5515 89.296C83.4262 88.272 83.8635 86.992 83.8635 85.456C83.8635 83.92 83.4262 82.64 82.5515 81.616C81.6768 80.592 80.5462 80.08 79.1595 80.08C77.7942 80.08 76.6742 80.592 75.7995 81.616C74.9248 82.64 74.4875 83.92 74.4875 85.456C74.4875 86.992 74.9142 88.272 75.7675 89.296C76.6422 90.2987 77.7728 90.8 79.1595 90.8ZM90.713 91.344C90.521 91.088 90.425 90.768 90.425 90.384C90.425 89.8293 90.7023 89.36 91.257 88.976C91.5557 88.784 91.865 88.688 92.185 88.688C92.633 88.688 93.0597 88.8907 93.465 89.296C94.105 89.9573 94.7663 90.448 95.449 90.768C96.153 91.088 96.9957 91.248 97.977 91.248C99.641 91.184 100.473 90.5547 100.473 89.36C100.473 88.7413 100.185 88.272 99.609 87.952C99.0543 87.632 98.1797 87.312 96.985 86.992C95.7477 86.6507 94.7343 86.3093 93.945 85.968C93.177 85.6267 92.505 85.1147 91.929 84.432C91.3743 83.728 91.097 82.7893 91.097 81.616C91.097 80.592 91.385 79.7067 91.961 78.96C92.5583 78.192 93.3263 77.6053 94.265 77.2C95.225 76.7733 96.2383 76.56 97.305 76.56C98.393 76.56 99.481 76.7627 100.569 77.168C101.657 77.5733 102.51 78.1707 103.129 78.96C103.406 79.3013 103.545 79.6853 103.545 80.112C103.545 80.6027 103.342 81.008 102.937 81.328C102.638 81.5627 102.297 81.68 101.913 81.68C101.444 81.68 101.06 81.5307 100.761 81.232C100.377 80.7627 99.8757 80.3893 99.257 80.112C98.6597 79.8347 97.977 79.696 97.209 79.696C95.5877 79.696 94.777 80.2827 94.777 81.456C94.777 81.9253 94.9263 82.3093 95.225 82.608C95.5237 82.8853 95.897 83.1093 96.345 83.28C96.8143 83.4293 97.465 83.6213 98.297 83.856C99.449 84.176 100.409 84.5067 101.177 84.848C101.945 85.1893 102.596 85.712 103.129 86.416C103.662 87.12 103.929 88.048 103.929 89.2C103.929 90.2453 103.62 91.1627 103.001 91.952C102.382 92.72 101.582 93.3067 100.601 93.712C99.641 94.1173 98.649 94.32 97.625 94.32C96.217 94.32 94.905 94.0853 93.689 93.616C92.473 93.1467 91.481 92.3893 90.713 91.344ZM119.847 76.88C120.401 76.88 120.86 77.072 121.222 77.456C121.585 77.8187 121.767 78.2773 121.767 78.832V92.432C121.767 95.2053 121.02 97.2213 119.527 98.48C118.033 99.76 116.039 100.4 113.543 100.4C112.817 100.4 112.071 100.336 111.303 100.208C110.556 100.101 109.948 99.952 109.479 99.76C108.433 99.312 107.911 98.6933 107.911 97.904C107.911 97.7547 107.943 97.584 108.007 97.392C108.135 96.9227 108.348 96.56 108.647 96.304C108.967 96.0693 109.308 95.952 109.671 95.952C109.884 95.952 110.087 95.984 110.279 96.048C110.428 96.112 110.684 96.2187 111.047 96.368C111.431 96.5173 111.825 96.6347 112.231 96.72C112.657 96.8267 113.095 96.88 113.543 96.88C115.057 96.88 116.167 96.5493 116.871 95.888C117.596 95.248 117.959 94.1387 117.959 92.56V92.24C116.849 93.6267 115.121 94.32 112.775 94.32C111.665 94.32 110.684 94.064 109.831 93.552C108.977 93.0187 108.316 92.2933 107.847 91.376C107.377 90.4373 107.143 89.3707 107.143 88.176V78.832C107.143 78.2773 107.324 77.8187 107.687 77.456C108.049 77.072 108.508 76.88 109.062 76.88C109.617 76.88 110.076 77.072 110.439 77.456C110.801 77.8187 110.983 78.2773 110.983 78.832V87.024C110.983 88.368 111.271 89.3387 111.847 89.936C112.444 90.512 113.308 90.8 114.439 90.8C115.548 90.8 116.401 90.48 116.999 89.84C117.617 89.1787 117.927 88.24 117.927 87.024V78.832C117.927 78.2773 118.108 77.8187 118.471 77.456C118.833 77.072 119.292 76.88 119.847 76.88Z" fill="#9A00FF"/>
<path d="M134.18 90.384C134.478 90.384 134.745 90.5333 134.98 90.832C135.236 91.1093 135.364 91.4827 135.364 91.952C135.364 92.528 135.044 93.0187 134.404 93.424C133.785 93.808 133.081 94 132.292 94C130.969 94 129.849 93.7227 128.932 93.168C128.036 92.592 127.588 91.3867 127.588 89.552V80.72H126.116C125.604 80.72 125.177 80.5493 124.836 80.208C124.494 79.8667 124.324 79.44 124.324 78.928C124.324 78.4373 124.494 78.032 124.836 77.712C125.177 77.3707 125.604 77.2 126.116 77.2H127.588V75.152C127.588 74.5973 127.769 74.1387 128.132 73.776C128.516 73.392 128.985 73.2 129.54 73.2C130.073 73.2 130.521 73.392 130.884 73.776C131.246 74.1387 131.428 74.5973 131.428 75.152V77.2H133.7C134.212 77.2 134.638 77.3707 134.98 77.712C135.321 78.0533 135.492 78.48 135.492 78.992C135.492 79.4827 135.321 79.8987 134.98 80.24C134.638 80.56 134.212 80.72 133.7 80.72H131.428V89.392C131.428 89.84 131.545 90.1707 131.78 90.384C132.014 90.576 132.334 90.672 132.74 90.672C132.91 90.672 133.145 90.6293 133.444 90.544C133.7 90.4373 133.945 90.384 134.18 90.384ZM152.874 76.56C153.428 76.56 153.887 76.7413 154.25 77.104C154.612 77.4667 154.794 77.936 154.794 78.512V92.048C154.794 92.6027 154.612 93.072 154.25 93.456C153.887 93.8187 153.428 94 152.874 94C152.319 94 151.86 93.8187 151.498 93.456C151.156 93.0933 150.975 92.6347 150.954 92.08C150.42 92.6987 149.695 93.232 148.778 93.68C147.882 94.1067 146.932 94.32 145.93 94.32C144.458 94.32 143.124 93.9467 141.93 93.2C140.735 92.432 139.786 91.376 139.082 90.032C138.399 88.688 138.058 87.1627 138.058 85.456C138.058 83.7493 138.399 82.224 139.082 80.88C139.764 79.5147 140.692 78.4587 141.866 77.712C143.06 76.944 144.372 76.56 145.802 76.56C146.826 76.56 147.786 76.752 148.682 77.136C149.578 77.4987 150.335 77.968 150.954 78.544V78.512C150.954 77.9573 151.135 77.4987 151.498 77.136C151.86 76.752 152.319 76.56 152.874 76.56ZM146.41 90.8C147.796 90.8 148.927 90.2987 149.802 89.296C150.676 88.272 151.114 86.992 151.114 85.456C151.114 83.92 150.676 82.64 149.802 81.616C148.927 80.592 147.796 80.08 146.41 80.08C145.044 80.08 143.924 80.592 143.05 81.616C142.175 82.64 141.738 83.92 141.738 85.456C141.738 86.992 142.164 88.272 143.018 89.296C143.892 90.2987 145.023 90.8 146.41 90.8ZM157.963 91.344C157.771 91.088 157.675 90.768 157.675 90.384C157.675 89.8293 157.952 89.36 158.507 88.976C158.806 88.784 159.115 88.688 159.435 88.688C159.883 88.688 160.31 88.8907 160.715 89.296C161.355 89.9573 162.016 90.448 162.699 90.768C163.403 91.088 164.246 91.248 165.227 91.248C166.891 91.184 167.723 90.5547 167.723 89.36C167.723 88.7413 167.435 88.272 166.859 87.952C166.304 87.632 165.43 87.312 164.235 86.992C162.998 86.6507 161.984 86.3093 161.195 85.968C160.427 85.6267 159.755 85.1147 159.179 84.432C158.624 83.728 158.347 82.7893 158.347 81.616C158.347 80.592 158.635 79.7067 159.211 78.96C159.808 78.192 160.576 77.6053 161.515 77.2C162.475 76.7733 163.488 76.56 164.555 76.56C165.643 76.56 166.731 76.7627 167.819 77.168C168.907 77.5733 169.76 78.1707 170.379 78.96C170.656 79.3013 170.795 79.6853 170.795 80.112C170.795 80.6027 170.592 81.008 170.187 81.328C169.888 81.5627 169.547 81.68 169.163 81.68C168.694 81.68 168.31 81.5307 168.011 81.232C167.627 80.7627 167.126 80.3893 166.507 80.112C165.91 79.8347 165.227 79.696 164.459 79.696C162.838 79.696 162.027 80.2827 162.027 81.456C162.027 81.9253 162.176 82.3093 162.475 82.608C162.774 82.8853 163.147 83.1093 163.595 83.28C164.064 83.4293 164.715 83.6213 165.547 83.856C166.699 84.176 167.659 84.5067 168.427 84.848C169.195 85.1893 169.846 85.712 170.379 86.416C170.912 87.12 171.179 88.048 171.179 89.2C171.179 90.2453 170.87 91.1627 170.251 91.952C169.632 92.72 168.832 93.3067 167.851 93.712C166.891 94.1173 165.899 94.32 164.875 94.32C163.467 94.32 162.155 94.0853 160.939 93.616C159.723 93.1467 158.731 92.3893 157.963 91.344ZM188.633 90.64C189.038 91.0667 189.241 91.5467 189.241 92.08C189.241 92.6133 189.027 93.0613 188.601 93.424C188.195 93.7867 187.758 93.968 187.289 93.968C186.734 93.968 186.265 93.7547 185.881 93.328L180.121 87.248L178.553 88.688V92.048C178.553 92.6027 178.371 93.072 178.009 93.456C177.646 93.8187 177.187 94 176.633 94C176.078 94 175.619 93.8187 175.257 93.456C174.894 93.072 174.713 92.6027 174.713 92.048V72.272C174.713 71.7173 174.894 71.2587 175.257 70.896C175.619 70.512 176.078 70.32 176.633 70.32C177.187 70.32 177.646 70.512 178.009 70.896C178.371 71.2587 178.553 71.7173 178.553 72.272V84.112L185.401 77.488C185.806 77.0827 186.275 76.88 186.809 76.88C187.278 76.88 187.694 77.0827 188.057 77.488C188.441 77.872 188.633 78.2667 188.633 78.672C188.633 79.184 188.377 79.664 187.865 80.112L183.033 84.56L188.633 90.64ZM191.463 91.344C191.271 91.088 191.175 90.768 191.175 90.384C191.175 89.8293 191.452 89.36 192.007 88.976C192.306 88.784 192.615 88.688 192.935 88.688C193.383 88.688 193.81 88.8907 194.215 89.296C194.855 89.9573 195.516 90.448 196.199 90.768C196.903 91.088 197.746 91.248 198.727 91.248C200.391 91.184 201.223 90.5547 201.223 89.36C201.223 88.7413 200.935 88.272 200.359 87.952C199.804 87.632 198.93 87.312 197.735 86.992C196.498 86.6507 195.484 86.3093 194.695 85.968C193.927 85.6267 193.255 85.1147 192.679 84.432C192.124 83.728 191.847 82.7893 191.847 81.616C191.847 80.592 192.135 79.7067 192.711 78.96C193.308 78.192 194.076 77.6053 195.015 77.2C195.975 76.7733 196.988 76.56 198.055 76.56C199.143 76.56 200.231 76.7627 201.319 77.168C202.407 77.5733 203.26 78.1707 203.879 78.96C204.156 79.3013 204.295 79.6853 204.295 80.112C204.295 80.6027 204.092 81.008 203.687 81.328C203.388 81.5627 203.047 81.68 202.663 81.68C202.194 81.68 201.81 81.5307 201.511 81.232C201.127 80.7627 200.626 80.3893 200.007 80.112C199.41 79.8347 198.727 79.696 197.959 79.696C196.338 79.696 195.527 80.2827 195.527 81.456C195.527 81.9253 195.676 82.3093 195.975 82.608C196.274 82.8853 196.647 83.1093 197.095 83.28C197.564 83.4293 198.215 83.6213 199.047 83.856C200.199 84.176 201.159 84.5067 201.927 84.848C202.695 85.1893 203.346 85.712 203.879 86.416C204.412 87.12 204.679 88.048 204.679 89.2C204.679 90.2453 204.37 91.1627 203.751 91.952C203.132 92.72 202.332 93.3067 201.351 93.712C200.391 94.1173 199.399 94.32 198.375 94.32C196.967 94.32 195.655 94.0853 194.439 93.616C193.223 93.1467 192.231 92.3893 191.463 91.344Z" fill="#580091"/>
</svg>
