<svg width="35" height="36" viewBox="0 0 35 36" fill="none" xmlns="http://www.w3.org/2000/svg">
<path d="M2.46204 26.9557C4.59234 30.5246 7.95744 33.271 11.9678 34.6062C12.8434 34.7662 13.1624 34.2259 13.1624 33.7618C13.1624 33.5696 13.1592 33.2301 13.1549 32.7758C13.1499 32.2496 13.1434 31.5694 13.1388 30.7859C8.27111 31.843 7.24407 28.4396 7.24407 28.4396C6.448 26.4188 5.30064 25.8806 5.30064 25.8806C3.71173 24.7945 5.42096 24.816 5.42096 24.816C7.17746 24.9406 8.10137 26.6197 8.10137 26.6197C9.66234 29.2937 12.1977 28.5213 13.1947 28.0744C13.3537 26.9431 13.8049 26.1717 14.3055 25.7345C10.4197 25.293 6.33412 23.7911 6.33412 17.0852C6.33412 15.1751 7.01631 13.613 8.13574 12.3894C7.95526 11.9468 7.35472 10.1677 8.30656 7.75805C8.30656 7.75805 9.77622 7.2875 13.1195 9.55215C14.515 9.16432 16.0126 8.96988 17.5005 8.96343C18.9863 8.96988 20.4839 9.16432 21.8816 9.55215C25.2227 7.2875 26.6891 7.75805 26.6891 7.75805C27.6442 10.1677 27.0436 11.9468 26.8631 12.3894C27.9847 13.613 28.6626 15.1751 28.6626 17.0852C28.6626 23.8083 24.5706 25.2876 20.6719 25.7205C21.3004 26.2609 21.8601 27.3288 21.8601 28.9617C21.8601 30.5259 21.8505 31.8882 21.8441 32.7906C21.8409 33.2376 21.8386 33.5717 21.8386 33.7618C21.8386 34.2302 22.1534 34.7748 23.0418 34.604C26.2366 33.5376 29.0214 31.576 31.098 29.0166C27.8895 32.972 22.99 35.5 17.5 35.5C11.1078 35.5 5.51605 32.0728 2.46204 26.9557Z" fill="white"/>
</svg>
