<svg width="35" height="36" viewBox="0 0 35 36" fill="#161F24" xmlns="http://www.w3.org/2000/svg">
<path fill-rule="evenodd" clip-rule="evenodd" d="M12.9279 9.4984C12.9279 10.5879 12.0984 11.4695 10.8011 11.4695C9.55444 11.4695 8.72491 10.5879 8.75058 9.4984C8.72491 8.356 9.55442 7.5 10.826 7.5C12.0984 7.5 12.903 8.356 12.9279 9.4984ZM8.85488 25.7167V13.0267H12.7987V25.7159H8.85488V25.7167Z" fill="white"/>
<path fill-rule="evenodd" clip-rule="evenodd" d="M15.9598 17.0765C15.9598 15.4937 15.9076 14.1443 15.8555 13.0284H19.2811L19.4632 14.7669H19.541C20.0601 13.9622 21.3573 12.7436 23.4592 12.7436C26.0537 12.7436 28 14.4564 28 18.1917V25.7184H24.0561V18.6858C24.0561 17.0501 23.4857 15.9349 22.0585 15.9349C20.9682 15.9349 20.32 16.6874 20.0609 17.4135C19.9566 17.6734 19.9052 18.036 19.9052 18.4002V25.7184H15.9614V17.0765H15.9598Z" fill="white"/>
</svg>
