<svg width="1840" height="241" viewBox="0 0 1840 241" fill="none" xmlns="http://www.w3.org/2000/svg">
<rect width="1840" height="240.132" fill="#092E20"/>
<g clip-path="url(#clip0_331_6)">
<path fill-rule="evenodd" clip-rule="evenodd" d="M798.698 66H816.069V144.247C807.171 145.901 800.621 146.552 793.534 146.552C772.318 146.53 761.275 137.215 761.275 119.324C761.275 102.086 772.989 90.8991 791.142 90.8991C793.959 90.8991 796.105 91.1168 798.698 91.7697V66ZM798.698 105.373C796.664 104.72 794.987 104.502 792.841 104.502C784.055 104.502 778.98 109.769 778.98 119C778.98 127.987 783.832 132.949 792.729 132.949C794.652 132.949 796.217 132.842 798.698 132.516V105.373ZM843.678 92.0962V131.273C843.678 144.765 842.649 151.253 839.631 156.847C836.815 162.225 833.104 165.616 825.436 169.362L809.317 161.896C816.985 158.395 820.696 155.3 823.066 150.577C825.547 145.747 826.33 140.153 826.33 125.44V92.0962H843.678ZM826.33 66.0871H843.7V83.4337H826.33V66.0871ZM854.16 95.9486C861.831 92.4444 869.163 90.8991 877.167 90.8991C886.086 90.8991 891.941 93.2062 894.537 97.7116C895.99 100.236 896.46 103.523 896.46 110.553V144.898C888.682 145.986 878.866 146.768 871.665 146.768C857.111 146.768 850.583 141.827 850.583 130.86C850.583 118.998 859.26 113.513 880.562 111.77V108.048C880.562 104.979 878.975 103.869 874.593 103.869C868.177 103.869 860.956 105.632 854.183 109.027L854.16 95.9486ZM881.345 122.826C869.854 123.914 866.121 125.68 866.121 130.074C866.121 133.365 868.267 134.908 873.006 134.908C875.599 134.908 877.969 134.69 881.343 134.146V122.826H881.345ZM904.91 94.7298C915.171 92.0962 923.619 90.8991 932.182 90.8991C941.079 90.8991 947.52 92.8797 951.34 96.7104C954.937 100.323 956.082 104.285 956.082 112.729V145.877H938.71V113.404C938.71 106.918 936.452 104.502 930.261 104.502C927.889 104.502 925.745 104.72 922.258 105.721V145.88H904.91V94.7298ZM962.834 155.104C968.912 158.173 974.995 159.589 981.433 159.589C992.812 159.589 997.664 155.084 997.664 144.332V144.006C994.288 145.638 990.888 146.315 986.394 146.315C971.172 146.315 961.492 136.542 961.492 121.068C961.492 101.849 975.822 90.9884 1001.17 90.9884C1008.62 90.9884 1015.5 91.7501 1023.84 93.4043L1017.89 105.593C1013.27 104.722 1017.51 105.462 1014.03 105.136V106.899L1014.25 114.037L1014.36 123.266C1014.48 125.575 1014.48 127.878 1014.59 130.187V134.799C1014.59 149.295 1013.33 156.087 1009.62 161.703C1004.21 169.928 994.849 174 981.543 174C974.771 174 968.912 173.018 962.834 170.709V155.104ZM997.328 104.611H996.769H995.515C992.14 104.502 988.185 105.373 985.478 107.027C981.322 109.334 979.178 113.513 979.178 119.433C979.178 127.876 983.47 132.71 991.138 132.71C993.506 132.71 995.43 132.277 997.666 131.621V130.4V125.788C997.666 123.808 997.552 121.61 997.552 119.302L997.442 111.511L997.328 105.917V104.611ZM1050.78 90.6815C1068.13 90.6815 1078.73 101.325 1078.73 118.562C1078.73 136.236 1067.68 147.312 1050.09 147.312C1032.72 147.312 1022 136.671 1022 119.544C1022.03 101.76 1033.08 90.6815 1050.78 90.6815ZM1050.42 133.687C1057.09 133.687 1061.02 128.313 1061.02 118.976C1061.02 109.748 1057.19 104.263 1050.54 104.263C1043.65 104.263 1039.71 109.639 1039.71 118.976C1039.71 128.313 1043.67 133.687 1050.42 133.687Z" fill="white"/>
</g>
<defs>
<clipPath id="clip0_331_6">
<rect width="317.451" height="108" fill="white" transform="translate(761.275 66)"/>
</clipPath>
</defs>
</svg>
