<svg width="35" height="36" viewBox="0 0 35 36" fill="#161F24" xmlns="http://www.w3.org/2000/svg">

<path d="M12.4688 8.65627C11.9903 7.69519 11.2563 7.78028 10.5147 7.78028C9.18947 7.78028 7.12305 9.36768 7.12305 12.322C7.12305 14.7432 8.18996 17.3936 11.7851 21.3584C15.2547 25.1846 19.8135 27.164 23.5982 27.0966C27.3828 27.0292 28.1615 23.7724 28.1615 22.6725C28.1615 22.185 27.859 21.9418 27.6506 21.8757C26.3609 21.2568 23.9822 20.1035 23.4409 19.8868C22.8997 19.6701 22.6171 19.9632 22.4414 20.1226C21.9506 20.5903 20.9777 21.9688 20.6445 22.2789C20.3114 22.5889 19.8148 22.432 19.6081 22.3148C18.8476 22.0096 16.7855 21.0923 15.1417 19.499C13.1089 17.5284 12.9896 16.8504 12.6066 16.2469C12.3002 15.7641 12.525 15.4679 12.6372 15.3384C13.0752 14.833 13.68 14.0528 13.9512 13.6651C14.2224 13.2773 14.0071 12.6886 13.8779 12.322C13.3223 10.7451 12.8516 9.42513 12.4688 8.65627Z" fill="white"/>
</svg>
