<svg width="257" height="163" viewBox="0 0 257 163" fill="none" xmlns="http://www.w3.org/2000/svg">
<rect width="257" height="163" fill="#FFFDED"/>
<path d="M33.496 93.744L28.184 79.056C28.056 78.6293 28.1093 78.2453 28.344 77.904C28.5787 77.5413 28.92 77.36 29.368 77.36H30.328C30.8613 77.36 31.352 77.5307 31.8 77.872C32.248 78.192 32.536 78.608 32.664 79.12L35.64 89.584C35.64 89.6053 35.6507 89.616 35.672 89.616C35.6933 89.616 35.704 89.6053 35.704 89.584L39.128 79.088C39.2987 78.576 39.608 78.16 40.056 77.84C40.504 77.52 40.9947 77.36 41.528 77.36H42.296C42.744 77.36 43.0853 77.5413 43.32 77.904C43.576 78.2667 43.6187 78.6507 43.448 79.056L35.64 99.344C35.448 99.856 35.128 100.261 34.68 100.56C34.232 100.88 33.7307 101.04 33.176 101.04H32.408C31.9813 101.04 31.64 100.859 31.384 100.496C31.1493 100.155 31.1173 99.7813 31.288 99.376L33.496 94.256C33.5387 94.1707 33.56 94.0853 33.56 94C33.56 93.9147 33.5387 93.8293 33.496 93.744ZM53.7043 86C50.6536 86 49.1283 86.9387 49.1283 88.816C49.1283 89.4987 49.3203 90.0533 49.7043 90.48C50.1096 90.9067 50.6216 91.12 51.2403 91.12C52.4563 91.12 53.4376 90.7467 54.1843 90C54.9309 89.232 55.3043 88.1867 55.3043 86.864V86.288C55.3043 86.096 55.2083 86 55.0163 86H53.7043ZM50.0883 94.32C48.6376 94.32 47.4323 93.8507 46.4723 92.912C45.5336 91.952 45.0643 90.7147 45.0643 89.2C45.0643 87.344 45.7683 85.904 47.1763 84.88C48.6056 83.856 50.7816 83.344 53.7043 83.344H55.0163C55.2083 83.344 55.3043 83.248 55.3043 83.056V82.8C55.3043 81.8187 55.0696 81.136 54.6003 80.752C54.1309 80.3467 53.2989 80.144 52.1042 80.144C50.8669 80.144 49.3523 80.368 47.5603 80.816C47.1763 80.9227 46.8243 80.8587 46.5043 80.624C46.1843 80.368 46.0243 80.0373 46.0243 79.632C46.0243 79.1413 46.1736 78.704 46.4723 78.32C46.7709 77.9147 47.1549 77.6693 47.6243 77.584C49.2456 77.2213 50.7709 77.04 52.2003 77.04C54.9309 77.04 56.8403 77.5307 57.9283 78.512C59.0163 79.4933 59.5603 81.2107 59.5603 83.664V92.176C59.5603 92.6667 59.3789 93.0933 59.0163 93.456C58.6749 93.8187 58.2589 94 57.7683 94H57.4163C56.9043 94 56.4669 93.8293 56.1043 93.488C55.7416 93.1253 55.5496 92.688 55.5283 92.176V91.728C55.5283 91.7067 55.5176 91.696 55.4963 91.696C55.4536 91.696 55.4323 91.7067 55.4323 91.728C54.1309 93.456 52.3496 94.32 50.0883 94.32ZM69.2173 87.28C66.9773 86.7893 65.3773 86.1173 64.4173 85.264C63.4786 84.4107 63.0093 83.3013 63.0093 81.936C63.0093 80.4 63.5746 79.2053 64.7053 78.352C65.8573 77.4773 67.5533 77.04 69.7933 77.04C71.2013 77.04 72.5986 77.168 73.9853 77.424C74.4546 77.5093 74.8279 77.744 75.1053 78.128C75.4039 78.4907 75.5533 78.9173 75.5533 79.408C75.5533 79.8133 75.3933 80.144 75.0733 80.4C74.7533 80.6347 74.3906 80.6987 73.9853 80.592C72.7906 80.2933 71.5319 80.144 70.2093 80.144C68.2893 80.144 67.3293 80.6773 67.3293 81.744C67.3293 82.256 67.5106 82.6827 67.8733 83.024C68.2359 83.3653 68.8546 83.632 69.7292 83.824C72.1826 84.3147 73.8573 84.976 74.7533 85.808C75.6706 86.64 76.1293 87.856 76.1293 89.456C76.1293 90.992 75.5533 92.1867 74.4013 93.04C73.2493 93.8933 71.5746 94.32 69.3773 94.32C67.9479 94.32 66.4866 94.1493 64.9933 93.808C64.5239 93.7013 64.1399 93.456 63.8413 93.072C63.5426 92.6667 63.3932 92.208 63.3932 91.696C63.3932 91.2907 63.5532 90.9813 63.8733 90.768C64.2146 90.5547 64.5773 90.5013 64.9613 90.608C66.3479 90.992 67.6599 91.184 68.8973 91.184C70.8386 91.184 71.8093 90.608 71.8093 89.456C71.8093 88.9013 71.6173 88.464 71.2333 88.144C70.8706 87.824 70.1986 87.536 69.2173 87.28ZM81.8438 94C81.3531 94 80.9264 93.8187 80.5638 93.456C80.2224 93.0933 80.0518 92.6667 80.0518 92.176V79.184C80.0518 78.6933 80.2224 78.2667 80.5638 77.904C80.9264 77.5413 81.3531 77.36 81.8438 77.36H82.2918C82.7824 77.36 83.1984 77.5307 83.5398 77.872C83.9024 78.2133 84.0944 78.6293 84.1158 79.12V79.344C84.1158 79.3653 84.1264 79.376 84.1478 79.376C84.1904 79.376 84.2118 79.3653 84.2118 79.344C85.4704 77.808 86.8891 77.04 88.4678 77.04C89.4278 77.04 90.1958 77.2213 90.7718 77.584C91.3691 77.9467 91.8918 78.5867 92.3398 79.504C92.3398 79.5253 92.3611 79.536 92.4038 79.536C92.4251 79.536 92.4464 79.5253 92.4678 79.504C93.8118 77.8613 95.3264 77.04 97.0118 77.04C98.7824 77.04 100.052 77.52 100.82 78.48C101.609 79.44 102.004 81.0933 102.004 83.44V92.176C102.004 92.6667 101.822 93.0933 101.46 93.456C101.118 93.8187 100.702 94 100.212 94H99.6678C99.1771 94 98.7504 93.8187 98.3878 93.456C98.0251 93.0933 97.8438 92.6667 97.8438 92.176V84.08C97.8438 82.5227 97.6944 81.4987 97.3958 81.008C97.0971 80.5173 96.5211 80.272 95.6678 80.272C95.1131 80.272 94.5584 80.528 94.0037 81.04C93.4491 81.552 93.1718 82.064 93.1718 82.576V92.176C93.1718 92.6667 92.9904 93.0933 92.6278 93.456C92.2651 93.8187 91.8384 94 91.3478 94H90.8038C90.3131 94 89.8864 93.8187 89.5238 93.456C89.1824 93.0933 89.0118 92.6667 89.0118 92.176V84.08C89.0118 82.544 88.8518 81.5307 88.5318 81.04C88.2331 80.528 87.6571 80.272 86.8038 80.272C86.2491 80.272 85.6944 80.528 85.1398 81.04C84.5851 81.552 84.3078 82.064 84.3078 82.576V92.176C84.3078 92.6667 84.1264 93.0933 83.7638 93.456C83.4011 93.8187 82.9744 94 82.4838 94H81.8438ZM109.055 94C108.564 94 108.137 93.8187 107.775 93.456C107.412 93.0933 107.231 92.6667 107.231 92.176V79.184C107.231 78.6933 107.412 78.2667 107.775 77.904C108.137 77.5413 108.564 77.36 109.055 77.36H109.887C110.377 77.36 110.804 77.5413 111.167 77.904C111.529 78.2667 111.711 78.6933 111.711 79.184V92.176C111.711 92.6667 111.529 93.0933 111.167 93.456C110.804 93.8187 110.377 94 109.887 94H109.055ZM109.055 73.84C108.564 73.84 108.137 73.6587 107.775 73.296C107.412 72.9333 107.231 72.5067 107.231 72.016V71.824C107.231 71.3333 107.412 70.9067 107.775 70.544C108.137 70.1813 108.564 70 109.055 70H109.887C110.377 70 110.804 70.1813 111.167 70.544C111.529 70.9067 111.711 71.3333 111.711 71.824V72.016C111.711 72.5067 111.529 72.9333 111.167 73.296C110.804 73.6587 110.377 73.84 109.887 73.84H109.055ZM118.907 94C118.416 94 117.99 93.8187 117.627 93.456C117.264 93.0933 117.083 92.6667 117.083 92.176V79.184C117.083 78.6933 117.264 78.2667 117.627 77.904C117.99 77.5413 118.416 77.36 118.907 77.36H119.323C119.835 77.36 120.262 77.5413 120.603 77.904C120.966 78.2453 121.158 78.672 121.179 79.184V79.408C121.179 79.4293 121.19 79.44 121.211 79.44C121.232 79.44 121.254 79.4293 121.275 79.408C122.726 77.8293 124.422 77.04 126.363 77.04C128.304 77.04 129.712 77.5947 130.587 78.704C131.483 79.792 131.931 81.616 131.931 84.176V92.176C131.931 92.6667 131.75 93.0933 131.387 93.456C131.024 93.8187 130.598 94 130.107 94H129.563C129.072 94 128.646 93.8187 128.283 93.456C127.942 93.0933 127.771 92.6667 127.771 92.176V84.496C127.771 82.896 127.558 81.808 127.131 81.232C126.726 80.6347 125.99 80.336 124.923 80.336C124.048 80.336 123.238 80.7093 122.491 81.456C121.744 82.2027 121.371 83.0027 121.371 83.856V92.176C121.371 92.6667 121.19 93.0933 120.827 93.456C120.464 93.8187 120.038 94 119.547 94H118.907ZM137.969 94C137.478 94 137.051 93.8187 136.689 93.456C136.347 93.0933 136.177 92.6667 136.177 92.176V79.184C136.177 78.6933 136.347 78.2667 136.689 77.904C137.051 77.5413 137.478 77.36 137.969 77.36H138.417C138.907 77.36 139.323 77.5307 139.665 77.872C140.027 78.2133 140.219 78.6293 140.241 79.12V79.344C140.241 79.3653 140.251 79.376 140.273 79.376C140.315 79.376 140.337 79.3653 140.337 79.344C141.595 77.808 143.014 77.04 144.593 77.04C145.553 77.04 146.321 77.2213 146.897 77.584C147.494 77.9467 148.017 78.5867 148.465 79.504C148.465 79.5253 148.486 79.536 148.529 79.536C148.55 79.536 148.571 79.5253 148.593 79.504C149.937 77.8613 151.451 77.04 153.137 77.04C154.907 77.04 156.177 77.52 156.945 78.48C157.734 79.44 158.129 81.0933 158.129 83.44V92.176C158.129 92.6667 157.947 93.0933 157.585 93.456C157.243 93.8187 156.827 94 156.337 94H155.793C155.302 94 154.875 93.8187 154.513 93.456C154.15 93.0933 153.969 92.6667 153.969 92.176V84.08C153.969 82.5227 153.819 81.4987 153.521 81.008C153.222 80.5173 152.646 80.272 151.793 80.272C151.238 80.272 150.683 80.528 150.129 81.04C149.574 81.552 149.297 82.064 149.297 82.576V92.176C149.297 92.6667 149.115 93.0933 148.753 93.456C148.39 93.8187 147.963 94 147.473 94H146.929C146.438 94 146.011 93.8187 145.649 93.456C145.307 93.0933 145.137 92.6667 145.137 92.176V84.08C145.137 82.544 144.977 81.5307 144.657 81.04C144.358 80.528 143.782 80.272 142.929 80.272C142.374 80.272 141.819 80.528 141.265 81.04C140.71 81.552 140.433 82.064 140.433 82.576V92.176C140.433 92.6667 140.251 93.0933 139.889 93.456C139.526 93.8187 139.099 94 138.609 94H137.969ZM172.188 81.488C171.569 80.592 170.63 80.144 169.372 80.144C168.113 80.144 167.164 80.592 166.524 81.488C165.905 82.3627 165.596 83.76 165.596 85.68C165.596 87.6 165.905 89.008 166.524 89.904C167.164 90.7787 168.113 91.216 169.372 91.216C170.63 91.216 171.569 90.7787 172.188 89.904C172.828 89.008 173.148 87.6 173.148 85.68C173.148 83.76 172.828 82.3627 172.188 81.488ZM175.324 92.08C173.916 93.5733 171.932 94.32 169.372 94.32C166.812 94.32 164.817 93.5733 163.388 92.08C161.98 90.5653 161.276 88.432 161.276 85.68C161.276 82.928 161.98 80.8053 163.388 79.312C164.817 77.7973 166.812 77.04 169.372 77.04C171.932 77.04 173.916 77.7973 175.324 79.312C176.753 80.8053 177.468 82.928 177.468 85.68C177.468 88.432 176.753 90.5653 175.324 92.08ZM185.987 94.32C184.109 94.32 182.744 93.808 181.891 92.784C181.037 91.7387 180.611 89.9787 180.611 87.504V79.184C180.611 78.6933 180.792 78.2667 181.155 77.904C181.517 77.5413 181.944 77.36 182.435 77.36H182.947C183.437 77.36 183.864 77.5413 184.227 77.904C184.589 78.2667 184.771 78.6933 184.771 79.184V87.056C184.771 88.5493 184.973 89.584 185.379 90.16C185.784 90.736 186.467 91.024 187.427 91.024C188.301 91.024 189.112 90.6507 189.859 89.904C190.627 89.1573 191.011 88.3573 191.011 87.504V79.184C191.011 78.6933 191.192 78.2667 191.555 77.904C191.917 77.5413 192.344 77.36 192.835 77.36H193.475C193.965 77.36 194.381 77.5413 194.722 77.904C195.085 78.2667 195.267 78.6933 195.267 79.184V92.176C195.267 92.6667 195.085 93.0933 194.722 93.456C194.381 93.8187 193.965 94 193.475 94H193.059C192.547 94 192.109 93.8293 191.747 93.488C191.405 93.1253 191.224 92.688 191.203 92.176L191.171 91.952C191.171 91.9307 191.16 91.92 191.139 91.92C191.117 91.92 191.096 91.9307 191.075 91.952C189.624 93.5307 187.928 94.32 185.987 94.32ZM201.501 94C201.01 94 200.583 93.8187 200.221 93.456C199.858 93.0933 199.677 92.6667 199.677 92.176V79.184C199.677 78.6933 199.858 78.2667 200.221 77.904C200.583 77.5413 201.01 77.36 201.501 77.36H202.141C202.631 77.36 203.058 77.5413 203.421 77.904C203.783 78.2667 203.965 78.6933 203.965 79.184V80.528C203.965 80.5493 203.975 80.56 203.997 80.56C204.039 80.56 204.061 80.5493 204.061 80.528C204.679 79.6747 205.49 78.9813 206.493 78.448C207.495 77.8933 208.594 77.552 209.789 77.424C210.237 77.3813 210.621 77.5307 210.941 77.872C211.261 78.192 211.421 78.576 211.421 79.024C211.421 79.472 211.261 79.856 210.941 80.176C210.621 80.496 210.237 80.6773 209.789 80.72C206.013 81.0187 204.125 82.9387 204.125 86.48V92.176C204.125 92.6667 203.943 93.0933 203.581 93.456C203.218 93.8187 202.791 94 202.301 94H201.501ZM222.079 86C219.029 86 217.503 86.9387 217.503 88.816C217.503 89.4987 217.695 90.0533 218.079 90.48C218.485 90.9067 218.997 91.12 219.615 91.12C220.831 91.12 221.813 90.7467 222.559 90C223.306 89.232 223.679 88.1867 223.679 86.864V86.288C223.679 86.096 223.583 86 223.391 86H222.079ZM218.463 94.32C217.013 94.32 215.807 93.8507 214.847 92.912C213.909 91.952 213.439 90.7147 213.439 89.2C213.439 87.344 214.143 85.904 215.551 84.88C216.981 83.856 219.157 83.344 222.079 83.344H223.391C223.583 83.344 223.679 83.248 223.679 83.056V82.8C223.679 81.8187 223.445 81.136 222.975 80.752C222.506 80.3467 221.674 80.144 220.479 80.144C219.242 80.144 217.727 80.368 215.935 80.816C215.551 80.9227 215.199 80.8587 214.879 80.624C214.559 80.368 214.399 80.0373 214.399 79.632C214.399 79.1413 214.549 78.704 214.847 78.32C215.146 77.9147 215.53 77.6693 215.999 77.584C217.621 77.2213 219.146 77.04 220.575 77.04C223.306 77.04 225.215 77.5307 226.303 78.512C227.391 79.4933 227.935 81.2107 227.935 83.664V92.176C227.935 92.6667 227.754 93.0933 227.391 93.456C227.05 93.8187 226.634 94 226.143 94H225.791C225.279 94 224.842 93.8293 224.479 93.488C224.117 93.1253 223.925 92.688 223.903 92.176V91.728C223.903 91.7067 223.893 91.696 223.871 91.696C223.829 91.696 223.807 91.7067 223.807 91.728C222.506 93.456 220.725 94.32 218.463 94.32Z" fill="#4E3834"/>
</svg>
