<svg width="344" height="43" viewBox="0 0 344 43" fill="none" xmlns="http://www.w3.org/2000/svg">
<path d="M32.6 1.1L15.1 42.25H5.9L12.3 28.05L0.95 1.1H10.5L16.95 18.55L23.35 1.1H32.6ZM48.2418 21L54.2918 1.1H63.3918L53.4918 29H42.9418L33.0418 1.1H42.1918L48.2418 21ZM78.3406 29.4C75.9073 29.4 73.7406 28.9833 71.8406 28.15C69.9406 27.3167 68.4406 26.1833 67.3406 24.75C66.2406 23.2833 65.624 21.65 65.4906 19.85H73.9406C74.0406 20.8167 74.4906 21.6 75.2906 22.2C76.0906 22.8 77.074 23.1 78.2406 23.1C79.3073 23.1 80.124 22.9 80.6906 22.5C81.2906 22.0667 81.5906 21.5167 81.5906 20.85C81.5906 20.05 81.174 19.4667 80.3406 19.1C79.5073 18.7 78.1573 18.2667 76.2906 17.8C74.2906 17.3333 72.624 16.85 71.2906 16.35C69.9573 15.8167 68.8073 15 67.8406 13.9C66.874 12.7667 66.3906 11.25 66.3906 9.35C66.3906 7.75 66.824 6.3 67.6906 5C68.5906 3.66666 69.8906 2.61666 71.5906 1.85C73.324 1.08333 75.374 0.699998 77.7406 0.699998C81.2406 0.699998 83.9906 1.56667 85.9906 3.3C88.024 5.03333 89.1906 7.33333 89.4906 10.2H81.5906C81.4573 9.23333 81.024 8.46667 80.2906 7.9C79.5906 7.33333 78.6573 7.05 77.4906 7.05C76.4906 7.05 75.724 7.25 75.1906 7.65C74.6573 8.01667 74.3906 8.53333 74.3906 9.2C74.3906 10 74.8073 10.6 75.6406 11C76.5073 11.4 77.8406 11.8 79.6406 12.2C81.7073 12.7333 83.3906 13.2667 84.6906 13.8C85.9906 14.3 87.124 15.1333 88.0906 16.3C89.0906 17.4333 89.6073 18.9667 89.6406 20.9C89.6406 22.5333 89.174 24 88.2406 25.3C87.3406 26.5667 86.024 27.5667 84.2906 28.3C82.5906 29.0333 80.6073 29.4 78.3406 29.4ZM107.571 29.4C104.838 29.4 102.371 28.8167 100.171 27.65C98.0048 26.4833 96.2882 24.8167 95.0215 22.65C93.7882 20.4833 93.1715 17.95 93.1715 15.05C93.1715 12.1833 93.8048 9.66667 95.0715 7.5C96.3382 5.3 98.0715 3.61667 100.271 2.45C102.471 1.28333 104.938 0.699998 107.671 0.699998C110.405 0.699998 112.871 1.28333 115.071 2.45C117.271 3.61667 119.005 5.3 120.271 7.5C121.538 9.66667 122.171 12.1833 122.171 15.05C122.171 17.9167 121.521 20.45 120.221 22.65C118.955 24.8167 117.205 26.4833 114.971 27.65C112.771 28.8167 110.305 29.4 107.571 29.4ZM107.571 22C109.205 22 110.588 21.4 111.721 20.2C112.888 19 113.471 17.2833 113.471 15.05C113.471 12.8167 112.905 11.1 111.771 9.9C110.671 8.7 109.305 8.1 107.671 8.1C106.005 8.1 104.621 8.7 103.521 9.9C102.421 11.0667 101.871 12.7833 101.871 15.05C101.871 17.2833 102.405 19 103.471 20.2C104.571 21.4 105.938 22 107.571 22ZM143.707 0.799999C146.974 0.799999 149.574 1.86667 151.507 4C153.474 6.1 154.457 9 154.457 12.7V29H145.957V13.85C145.957 11.9833 145.474 10.5333 144.507 9.5C143.541 8.46667 142.241 7.95 140.607 7.95C138.974 7.95 137.674 8.46667 136.707 9.5C135.741 10.5333 135.257 11.9833 135.257 13.85V29H126.707V1.1H135.257V4.8C136.124 3.56667 137.291 2.6 138.757 1.9C140.224 1.16667 141.874 0.799999 143.707 0.799999ZM195.999 0.799999C199.465 0.799999 202.215 1.85 204.249 3.95C206.315 6.05 207.349 8.96667 207.349 12.7V29H198.849V13.85C198.849 12.05 198.365 10.6667 197.399 9.7C196.465 8.7 195.165 8.2 193.499 8.2C191.832 8.2 190.515 8.7 189.549 9.7C188.615 10.6667 188.149 12.05 188.149 13.85V29H179.649V13.85C179.649 12.05 179.165 10.6667 178.199 9.7C177.265 8.7 175.965 8.2 174.299 8.2C172.632 8.2 171.315 8.7 170.349 9.7C169.415 10.6667 168.949 12.05 168.949 13.85V29H160.399V1.1H168.949V4.6C169.815 3.43333 170.949 2.51667 172.349 1.85C173.749 1.15 175.332 0.799999 177.099 0.799999C179.199 0.799999 181.065 1.25 182.699 2.15C184.365 3.05 185.665 4.33333 186.599 6C187.565 4.46667 188.882 3.21666 190.549 2.25C192.215 1.28333 194.032 0.799999 195.999 0.799999ZM226.029 29.4C223.295 29.4 220.829 28.8167 218.629 27.65C216.462 26.4833 214.745 24.8167 213.479 22.65C212.245 20.4833 211.629 17.95 211.629 15.05C211.629 12.1833 212.262 9.66667 213.529 7.5C214.795 5.3 216.529 3.61667 218.729 2.45C220.929 1.28333 223.395 0.699998 226.129 0.699998C228.862 0.699998 231.329 1.28333 233.529 2.45C235.729 3.61667 237.462 5.3 238.729 7.5C239.995 9.66667 240.629 12.1833 240.629 15.05C240.629 17.9167 239.979 20.45 238.679 22.65C237.412 24.8167 235.662 26.4833 233.429 27.65C231.229 28.8167 228.762 29.4 226.029 29.4ZM226.029 22C227.662 22 229.045 21.4 230.179 20.2C231.345 19 231.929 17.2833 231.929 15.05C231.929 12.8167 231.362 11.1 230.229 9.9C229.129 8.7 227.762 8.1 226.129 8.1C224.462 8.1 223.079 8.7 221.979 9.9C220.879 11.0667 220.329 12.7833 220.329 15.05C220.329 17.2833 220.862 19 221.929 20.2C223.029 21.4 224.395 22 226.029 22ZM272.714 1.1V29H264.164V25.2C263.298 26.4333 262.114 27.4333 260.614 28.2C259.148 28.9333 257.514 29.3 255.714 29.3C253.581 29.3 251.698 28.8333 250.064 27.9C248.431 26.9333 247.164 25.55 246.264 23.75C245.364 21.95 244.914 19.8333 244.914 17.4V1.1H253.414V16.25C253.414 18.1167 253.898 19.5667 254.864 20.6C255.831 21.6333 257.131 22.15 258.764 22.15C260.431 22.15 261.748 21.6333 262.714 20.6C263.681 19.5667 264.164 18.1167 264.164 16.25V1.1H272.714ZM287.406 5.75C288.406 4.21666 289.656 3.01667 291.156 2.15C292.656 1.25 294.323 0.799999 296.156 0.799999V9.85H293.806C291.673 9.85 290.073 10.3167 289.006 11.25C287.939 12.15 287.406 13.75 287.406 16.05V29H278.856V1.1H287.406V5.75ZM298.543 15C298.543 12.1333 299.076 9.61667 300.143 7.45C301.243 5.28333 302.726 3.61667 304.593 2.45C306.459 1.28333 308.543 0.699998 310.843 0.699998C312.809 0.699998 314.526 1.1 315.993 1.9C317.493 2.7 318.643 3.75 319.443 5.05V1.1H327.993V29H319.443V25.05C318.609 26.35 317.443 27.4 315.943 28.2C314.476 29 312.759 29.4 310.793 29.4C308.526 29.4 306.459 28.8167 304.593 27.65C302.726 26.45 301.243 24.7667 300.143 22.6C299.076 20.4 298.543 17.8667 298.543 15ZM319.443 15.05C319.443 12.9167 318.843 11.2333 317.643 10C316.476 8.76667 315.043 8.15 313.343 8.15C311.643 8.15 310.193 8.76667 308.993 10C307.826 11.2 307.243 12.8667 307.243 15C307.243 17.1333 307.826 18.8333 308.993 20.1C310.193 21.3333 311.643 21.95 313.343 21.95C315.043 21.95 316.476 21.3333 317.643 20.1C318.843 18.8667 319.443 17.1833 319.443 15.05ZM338.178 29.4C336.678 29.4 335.445 28.9667 334.478 28.1C333.545 27.2 333.078 26.1 333.078 24.8C333.078 23.4667 333.545 22.35 334.478 21.45C335.445 20.55 336.678 20.1 338.178 20.1C339.645 20.1 340.845 20.55 341.778 21.45C342.745 22.35 343.228 23.4667 343.228 24.8C343.228 26.1 342.745 27.2 341.778 28.1C340.845 28.9667 339.645 29.4 338.178 29.4Z" fill="black"/>
</svg>
